<svg width="532" height="532" viewBox="0 0 532 532" fill="none" xmlns="http://www.w3.org/2000/svg">
<g clip-path="url(#clip0_9_24)">
<circle cx="266" cy="266" r="266" fill="#F7AB0A"/>
<path d="M270.759 347.278C318.448 347.278 357.108 308.619 357.108 260.929C357.108 213.24 318.448 174.58 270.759 174.58C223.07 174.58 184.41 213.24 184.41 260.929C184.41 308.619 223.07 347.278 270.759 347.278Z" fill="#DCABB2"/>
<path d="M199.288 366.614L217.288 320.614L310.288 306.614L320.28 408.44L226.28 410.44L199.288 366.614Z" fill="#DCABB2"/>
<path d="M271.812 213.733L271.811 213.732C271.515 213.621 271.371 213.563 270.663 213.278C269.7 212.889 267.694 212.08 262.842 210.145C249.898 204.98 243.079 202.321 239.31 200.934C235.547 199.549 234.783 199.417 233.972 199.336L233.972 199.336C227.55 198.701 220.471 201.01 214.23 205.027C207.985 209.047 202.526 214.809 199.354 221.161C196.047 227.781 195.783 233.932 195.564 242.279C195.556 242.593 195.548 242.911 195.54 243.232C195.329 251.436 195.061 261.849 192.127 276.961C191.77 278.798 191.318 280.994 190.74 282.736C190.451 283.609 190.139 284.338 189.811 284.843C189.466 285.372 189.189 285.528 189.004 285.536C188.838 285.543 188.572 285.439 188.208 285.01C187.856 284.596 187.489 283.967 187.116 283.152C186.374 281.529 185.663 279.286 185.019 276.872C183.734 272.052 182.746 266.647 182.334 264.395C178.884 245.522 175.59 227.458 182.317 207.175C182.669 206.113 183.965 203.536 186.34 199.116C188.704 194.718 192.109 188.544 196.647 180.321C203.185 168.476 208.096 159.584 211.61 153.387C213.367 150.288 214.773 147.867 215.857 146.089C216.949 144.297 217.693 143.193 218.133 142.698L218.134 142.698C224.903 135.086 234.454 127.803 244.895 123.167C255.339 118.53 266.622 116.563 276.886 119.5C281.958 120.952 284.065 122.82 286.453 124.935L286.573 125.042C289.058 127.242 291.867 129.674 298.402 132.06C310.012 136.299 320.854 135.822 329.202 135.211C329.825 135.165 330.433 135.119 331.025 135.074C334.422 134.815 337.311 134.595 339.616 134.754C342.33 134.94 344.025 135.639 344.821 137.205L345.266 136.978L344.821 137.205C345.663 138.862 344.949 140.371 343.789 142.618L343.731 142.731C342.609 144.902 341.215 147.599 341.175 151.34C341.104 157.903 345.242 162.1 350.387 166.155C351.472 167.01 352.602 167.859 353.754 168.724C358.109 171.997 362.769 175.499 366.416 180.379C366.82 180.918 367.259 181.431 367.691 181.936C367.935 182.222 368.178 182.505 368.41 182.789C369.067 183.592 369.7 184.464 370.257 185.595C371.37 187.858 372.205 191.224 372.187 197.234C372.151 209.272 368.695 231.737 357.459 276.74C357.362 277.129 357.257 277.562 357.144 278.029C356.597 280.28 355.86 283.315 354.918 285.974C354.348 287.581 353.715 289.016 353.023 290.043C352.34 291.057 351.687 291.547 351.084 291.591C351.047 291.551 350.992 291.475 350.924 291.346C350.771 291.055 350.606 290.597 350.436 289.969C350.098 288.721 349.767 286.907 349.458 284.683C348.84 280.24 348.314 274.222 347.969 267.956C347.623 261.69 347.458 255.188 347.559 249.778C347.61 247.072 347.727 244.646 347.92 242.661C348.115 240.663 348.383 239.157 348.719 238.264C350.455 233.651 349.022 228.494 346.411 223.843C343.791 219.177 339.93 214.917 336.616 212.028C333.512 209.323 329.492 208.781 324.901 209.255C320.871 209.671 316.314 210.88 311.427 212.177C310.757 212.355 310.081 212.535 309.399 212.714C298.037 215.702 284.969 218.675 271.812 213.733Z" fill="#060606" stroke="black"/>
<path d="M99.8783 472.502L99.8709 472.496L99.8426 472.468L99.7978 472.431C93.7002 467.515 87.7928 462.291 82.0853 456.78C82.1766 456.077 82.2745 455.38 82.3787 454.689L82.3787 454.689L82.38 454.68C83.1982 448.894 84.1053 443.383 85.1204 438.317L85.1204 438.316C87.1398 428.227 95.3525 417.853 106.834 407.895C118.282 397.966 132.824 388.582 147.231 380.444C173.55 365.576 199.305 354.931 204.641 352.77C204.751 353.111 204.891 353.528 205.063 354.013C205.578 355.463 206.379 357.526 207.53 359.996C209.831 364.934 213.538 371.51 219.165 378.068C230.439 391.207 249.391 404.229 280.021 403.891C290.563 403.776 298.054 400.423 303.311 395.383C308.547 390.364 311.485 383.751 313.092 377.236C314.7 370.719 314.991 364.235 314.885 359.394C314.832 356.971 314.679 354.951 314.538 353.534C314.508 353.229 314.479 352.952 314.451 352.705C314.471 352.71 314.491 352.714 314.512 352.718L314.512 352.718C320.46 353.981 344.099 359.152 370.321 367.102C396.589 375.067 425.28 385.773 441.445 398.057L442.05 397.261L441.445 398.057C446.25 401.707 450.438 407.472 454.072 414.771C457.702 422.061 460.749 430.817 463.304 440.378L463.304 440.379C463.425 440.83 463.537 441.264 463.65 441.703C463.705 441.915 463.76 442.128 463.817 442.345C460.459 446.103 456.982 449.785 453.383 453.384C403.331 503.435 336.785 531 266 531C204.818 531 146.81 510.408 99.8783 472.502Z" fill="#F7AB0A" stroke="black" stroke-width="2"/>
<path d="M454.09 77.9102C403.85 27.6709 337.05 0 266 0C194.95 0 128.15 27.6709 77.9099 77.9102C27.6702 128.15 0 194.95 0 266C0 330.851 23.05 392.16 65.29 440.57C69.3201 445.2 73.53 449.71 77.9099 454.091C78.9399 455.12 79.98 456.15 81.03 457.15C86.8701 462.811 92.9202 468.171 99.1702 473.21C99.2 473.24 99.22 473.261 99.25 473.28C146.36 511.33 204.59 532 266 532C337.05 532 403.85 504.33 454.09 454.091C457.83 450.351 461.44 446.521 464.92 442.61C508.29 393.891 532 331.771 532 266C532 194.95 504.33 128.15 454.09 77.9102ZM464.27 440.12C456.4 449.07 447.94 457.49 438.94 465.301C421.87 480.15 402.87 492.83 382.38 502.931C375.19 506.48 367.82 509.71 360.28 512.601C330.99 523.841 299.2 530 266 530C233.96 530 203.24 524.261 174.81 513.761C163.14 509.46 151.86 504.351 141.03 498.5C139.44 497.641 137.86 496.771 136.29 495.881C128.03 491.2 120.04 486.091 112.37 480.57C101.38 472.69 91.02 463.98 81.3899 454.54C75.99 449.25 70.8301 443.74 65.9001 438.011C26.0901 391.771 2 331.65 2 266C2 120.431 120.43 2 266 2C411.57 2 530 120.431 530 266C530 332.66 505.17 393.62 464.27 440.12Z" fill="#3F3D56"/>
<circle cx="315" cy="270" r="24.5" fill="#D9D9D9" fill-opacity="0.66" stroke="black"/>
<circle cx="231" cy="261" r="24.5" fill="#D9D9D9" fill-opacity="0.66" stroke="black"/>
<line x1="256.058" y1="265.503" x2="290.058" y2="269.503" stroke="black"/>
<line x1="338.856" y1="272.521" x2="348.856" y2="269.521" stroke="black"/>
<path d="M194 254L206 258" stroke="black"/>
</g>
<defs>
<clipPath id="clip0_9_24">
<rect width="532" height="532" fill="white"/>
</clipPath>
</defs>
</svg>
